<svg xmlns="http://www.w3.org/2000/svg" xmlns:xlink="http://www.w3.org/1999/xlink" width="40" zoomAndPan="magnify" viewBox="0 0 30 30.000001" height="40" preserveAspectRatio="xMidYMid meet" version="1.0"><path stroke-linecap="butt" transform="matrix(0.451372, 0, 0, 0.451372, 9.583533, 9.099665)" fill-opacity="1" fill="#ffffff" fill-rule="nonzero" stroke-linejoin="miter" d="M 12.000001 24.002208 C 5.396872 24.002208 -0.00332768 18.602008 -0.00332768 11.998879 C -0.00332768 5.39575 5.396872 0.00420446 12.000001 0.00420446 C 18.60313 0.00420446 24.00333 5.39575 24.00333 11.998879 C 24.00333 18.602008 18.60313 24.002208 12.000001 24.002208 Z M 9.498947 17.000988 C 10.096085 20.099179 11.203818 22.003096 12.000001 22.003096 C 12.796185 22.003096 13.903918 20.099179 14.501055 17.000988 Z M 16.604018 17.000988 C 16.301122 18.697204 15.79918 20.298225 15.202043 21.501154 C 17.504051 20.696317 19.503164 19.10395 20.697439 17.000988 Z M 3.302564 17.000988 C 4.496839 19.10395 6.495951 20.696317 8.79796 21.501154 C 8.200822 20.298225 7.698881 18.697204 7.395985 17.000988 Z M 16.89826 15.001875 L 21.597472 15.001875 C 21.796518 14.101842 22.004218 13.002763 22.004218 11.998879 C 22.004218 11.00365 21.796518 9.895917 21.502276 8.995884 L 16.803064 8.995884 C 17.00211 9.999767 17.00211 11.00365 17.00211 11.998879 C 17.00211 13.002763 17.00211 13.997992 16.89826 15.001875 Z M 9.196051 15.001875 L 14.899147 15.001875 C 15.002997 14.101842 15.098193 13.097958 15.098193 11.998879 C 15.098193 10.8998 15.002997 9.895917 14.899147 8.995884 L 9.196051 8.995884 C 9.100856 9.895917 8.997006 10.8998 8.997006 11.998879 C 8.997006 13.097958 9.100856 14.101842 9.196051 15.001875 Z M 2.497726 15.001875 L 7.196939 15.001875 C 7.101743 13.997992 7.101743 13.002763 7.101743 11.998879 C 7.101743 11.00365 7.101743 9.999767 7.196939 8.995884 L 2.497726 8.995884 C 2.203485 9.895917 1.995785 11.00365 1.995785 11.998879 C 1.995785 13.002763 2.203485 14.101842 2.497726 15.001875 Z M 16.604018 6.996771 L 20.697439 6.996771 C 19.503164 4.902463 17.504051 3.301442 15.202043 2.496604 C 15.79918 3.699534 16.301122 5.300554 16.604018 6.996771 Z M 9.498947 6.996771 L 14.596251 6.996771 C 13.999114 3.898579 12.900035 2.003317 12.103851 2.003317 C 11.299014 2.003317 10.096085 3.898579 9.498947 6.996771 Z M 3.302564 6.996771 L 7.395985 6.996771 C 7.698881 5.300554 8.200822 3.699534 8.79796 2.496604 C 6.495951 3.301442 4.600689 4.902463 3.302564 6.996771 Z M 3.302564 6.996771 " stroke="#ffffff" stroke-width="0.264" stroke-opacity="1" stroke-miterlimit="4"/></svg>